<svg xmlns="http://www.w3.org/2000/svg" xmlns:xlink="http://www.w3.org/1999/xlink" width="200" zoomAndPan="magnify" viewBox="0 0 150 37.5" height="50" preserveAspectRatio="xMidYMid meet" version="1.0"><defs><g/></defs><g fill="#000000" fill-opacity="1"><g transform="translate(4.721665, 25.500283)"><g><path d="M 7.84375 -7.078125 C 8.644531 -7.515625 9.21875 -8 9.5625 -8.53125 C 9.90625 -9.0625 10.078125 -9.710938 10.078125 -10.484375 C 10.078125 -11.285156 9.925781 -12.019531 9.625 -12.6875 C 9.320312 -13.351562 9.066406 -13.6875 8.859375 -13.6875 C 8.546875 -13.6875 8.296875 -13.488281 8.109375 -13.09375 C 7.929688 -12.707031 7.84375 -12.164062 7.84375 -11.46875 Z M 1.453125 0.578125 C 1.984375 -0.441406 2.632812 -1.207031 3.40625 -1.71875 C 4.1875 -2.238281 5.09375 -2.5 6.125 -2.5 C 6.75 -2.5 7.328125 -2.414062 7.859375 -2.25 C 8.398438 -2.09375 8.882812 -1.851562 9.3125 -1.53125 L 9.84375 -2.078125 C 9.675781 -3.347656 9.460938 -4.421875 9.203125 -5.296875 C 8.953125 -6.179688 8.679688 -6.769531 8.390625 -7.0625 L 7.84375 -6.796875 C 7.851562 -6.773438 7.859375 -6.75 7.859375 -6.71875 C 7.867188 -6.695312 7.875 -6.664062 7.875 -6.625 C 7.875 -6.582031 7.867188 -6.539062 7.859375 -6.5 C 7.847656 -6.457031 7.84375 -6.4375 7.84375 -6.4375 C 7.84375 -5.382812 7.65625 -4.628906 7.28125 -4.171875 C 6.90625 -3.710938 6.191406 -3.335938 5.140625 -3.046875 C 5.441406 -3.285156 5.648438 -3.5625 5.765625 -3.875 C 5.878906 -4.1875 5.9375 -4.738281 5.9375 -5.53125 L 5.9375 -10.84375 C 5.9375 -11.476562 6.023438 -11.945312 6.203125 -12.25 C 6.378906 -12.550781 6.71875 -12.867188 7.21875 -13.203125 C 7.914062 -13.648438 8.601562 -14.0625 9.28125 -14.4375 C 9.957031 -14.8125 10.316406 -15 10.359375 -15 C 10.703125 -15 11.039062 -14.710938 11.375 -14.140625 C 11.71875 -13.578125 11.890625 -12.925781 11.890625 -12.1875 C 11.890625 -11.238281 11.644531 -10.347656 11.15625 -9.515625 C 10.664062 -8.679688 9.988281 -8.019531 9.125 -7.53125 C 9.820312 -7.425781 10.347656 -7.144531 10.703125 -6.6875 C 11.066406 -6.226562 11.328125 -5.503906 11.484375 -4.515625 C 11.648438 -3.484375 11.847656 -2.765625 12.078125 -2.359375 C 12.304688 -1.953125 12.609375 -1.75 12.984375 -1.75 C 13.015625 -1.75 13.054688 -1.753906 13.109375 -1.765625 C 13.160156 -1.773438 13.21875 -1.789062 13.28125 -1.8125 C 13 -1.34375 12.769531 -0.90625 12.59375 -0.5 C 12.414062 -0.09375 12.296875 0.269531 12.234375 0.59375 C 11.609375 0.519531 11.097656 0.28125 10.703125 -0.125 C 10.304688 -0.539062 10.039062 -1.097656 9.90625 -1.796875 C 9.53125 -1.460938 8.890625 -0.679688 7.984375 0.546875 L 7.953125 0.59375 C 7.503906 0.226562 7 -0.046875 6.4375 -0.234375 C 5.882812 -0.421875 5.28125 -0.515625 4.625 -0.515625 C 4.125 -0.515625 3.601562 -0.421875 3.0625 -0.234375 C 2.53125 -0.046875 1.992188 0.222656 1.453125 0.578125 Z M 0.921875 -12.390625 C 1.023438 -13.128906 1.332031 -13.753906 1.84375 -14.265625 C 2.351562 -14.785156 2.910156 -15.046875 3.515625 -15.046875 C 3.773438 -15.046875 4.113281 -14.929688 4.53125 -14.703125 C 4.957031 -14.484375 5.316406 -14.375 5.609375 -14.375 C 5.859375 -14.375 6.085938 -14.421875 6.296875 -14.515625 C 6.515625 -14.609375 6.75 -14.769531 7 -15 C 6.851562 -14.351562 6.515625 -13.773438 5.984375 -13.265625 C 5.453125 -12.765625 4.9375 -12.515625 4.4375 -12.515625 C 4.238281 -12.515625 3.898438 -12.585938 3.421875 -12.734375 C 2.941406 -12.878906 2.566406 -12.953125 2.296875 -12.953125 C 2.078125 -12.953125 1.851562 -12.90625 1.625 -12.8125 C 1.40625 -12.71875 1.171875 -12.578125 0.921875 -12.390625 Z M 4.796875 -5.1875 C 4.796875 -4.363281 4.625 -3.75 4.28125 -3.34375 C 3.9375 -2.945312 3.289062 -2.472656 2.34375 -1.921875 C 2.539062 -2.171875 2.679688 -2.4375 2.765625 -2.71875 C 2.859375 -3 2.90625 -3.375 2.90625 -3.84375 L 2.90625 -4.265625 L 2.890625 -6.609375 C 2.785156 -6.617188 2.679688 -6.625 2.578125 -6.625 C 2.484375 -6.625 2.378906 -6.625 2.265625 -6.625 C 1.910156 -6.625 1.65625 -6.554688 1.5 -6.421875 C 1.34375 -6.296875 1.253906 -6.082031 1.234375 -5.78125 C 1.117188 -5.957031 1.03125 -6.15625 0.96875 -6.375 C 0.914062 -6.601562 0.890625 -6.863281 0.890625 -7.15625 C 0.890625 -7.707031 1.003906 -8.097656 1.234375 -8.328125 C 1.472656 -8.554688 1.894531 -8.671875 2.5 -8.671875 C 2.550781 -8.671875 2.609375 -8.664062 2.671875 -8.65625 C 2.742188 -8.65625 2.820312 -8.648438 2.90625 -8.640625 L 2.90625 -9.296875 C 2.90625 -9.992188 3.078125 -10.539062 3.421875 -10.9375 C 3.765625 -11.332031 4.445312 -11.75 5.46875 -12.1875 C 5.207031 -11.84375 5.03125 -11.523438 4.9375 -11.234375 C 4.84375 -10.941406 4.796875 -10.609375 4.796875 -10.234375 Z M 4.796875 -5.1875 "/></g></g></g><g fill="#000000" fill-opacity="1"><g transform="translate(18.297551, 25.500283)"><g><path d="M 3.5625 -2.421875 C 3.914062 -2.296875 4.21875 -2.128906 4.46875 -1.921875 C 4.726562 -1.710938 4.945312 -1.457031 5.125 -1.15625 C 5.269531 -1.207031 5.441406 -1.253906 5.640625 -1.296875 C 5.835938 -1.347656 6.109375 -1.410156 6.453125 -1.484375 L 6.46875 -7.75 C 6.15625 -7.820312 5.875 -7.953125 5.625 -8.140625 C 5.375 -8.328125 5.117188 -8.601562 4.859375 -8.96875 C 4.773438 -8.945312 4.65625 -8.910156 4.5 -8.859375 C 4.082031 -8.742188 3.769531 -8.664062 3.5625 -8.625 Z M 0.515625 -0.6875 C 0.566406 -1.019531 0.679688 -1.3125 0.859375 -1.5625 C 1.046875 -1.820312 1.316406 -2.0625 1.671875 -2.28125 L 1.671875 -7.140625 C 1.671875 -7.492188 1.632812 -7.800781 1.5625 -8.0625 C 1.488281 -8.332031 1.367188 -8.609375 1.203125 -8.890625 C 1.304688 -8.878906 1.421875 -8.867188 1.546875 -8.859375 C 1.671875 -8.859375 1.847656 -8.859375 2.078125 -8.859375 C 3.003906 -8.859375 3.894531 -8.992188 4.75 -9.265625 C 5.601562 -9.546875 6.382812 -9.953125 7.09375 -10.484375 C 7.28125 -10.023438 7.507812 -9.671875 7.78125 -9.421875 C 8.050781 -9.171875 8.359375 -9.046875 8.703125 -9.046875 C 8.765625 -9.046875 8.878906 -9.066406 9.046875 -9.109375 C 9.097656 -9.128906 9.140625 -9.140625 9.171875 -9.140625 C 9.078125 -8.910156 8.960938 -8.710938 8.828125 -8.546875 C 8.703125 -8.378906 8.535156 -8.226562 8.328125 -8.09375 L 8.328125 -3.453125 C 8.328125 -2.984375 8.363281 -2.5625 8.4375 -2.1875 C 8.507812 -1.820312 8.625 -1.460938 8.78125 -1.109375 C 8.414062 -1.160156 8.140625 -1.191406 7.953125 -1.203125 C 7.773438 -1.222656 7.617188 -1.234375 7.484375 -1.234375 C 6.691406 -1.234375 5.953125 -1.101562 5.265625 -0.84375 C 4.585938 -0.582031 3.90625 -0.164062 3.21875 0.40625 C 2.914062 0.0390625 2.585938 -0.238281 2.234375 -0.4375 C 1.878906 -0.644531 1.519531 -0.75 1.15625 -0.75 C 1.0625 -0.75 0.960938 -0.742188 0.859375 -0.734375 C 0.753906 -0.722656 0.640625 -0.707031 0.515625 -0.6875 Z M 0.515625 -0.6875 "/></g></g></g><g fill="#000000" fill-opacity="1"><g transform="translate(28.013933, 25.500283)"><g><path d="M 7.046875 -10.46875 C 7.265625 -10.0625 7.59375 -9.726562 8.03125 -9.46875 C 8.46875 -9.207031 8.914062 -9.078125 9.375 -9.078125 L 9.484375 -9.078125 C 9.347656 -8.828125 9.175781 -8.613281 8.96875 -8.4375 C 8.769531 -8.257812 8.523438 -8.097656 8.234375 -7.953125 L 8.234375 -1.359375 C 8.347656 -1.117188 8.425781 -0.882812 8.46875 -0.65625 C 8.519531 -0.4375 8.546875 -0.210938 8.546875 0.015625 C 8.546875 1.128906 8.097656 2.066406 7.203125 2.828125 C 6.304688 3.597656 5.207031 3.984375 3.90625 3.984375 C 3.25 3.984375 2.640625 3.785156 2.078125 3.390625 C 1.523438 3.003906 1.1875 2.8125 1.0625 2.8125 C 0.875 2.8125 0.710938 2.867188 0.578125 2.984375 C 0.441406 3.097656 0.320312 3.289062 0.21875 3.5625 C 0.195312 3.375 0.179688 3.238281 0.171875 3.15625 C 0.171875 3.070312 0.171875 3 0.171875 2.9375 C 0.171875 2.488281 0.316406 2.097656 0.609375 1.765625 C 0.898438 1.441406 1.25 1.28125 1.65625 1.28125 C 1.925781 1.28125 2.179688 1.359375 2.421875 1.515625 C 2.671875 1.679688 2.953125 1.972656 3.265625 2.390625 C 3.578125 2.816406 3.851562 3.109375 4.09375 3.265625 C 4.34375 3.421875 4.628906 3.5 4.953125 3.5 C 5.492188 3.5 5.96875 3.300781 6.375 2.90625 C 6.789062 2.507812 7 2.035156 7 1.484375 C 7 1.253906 6.890625 0.832031 6.671875 0.21875 C 6.460938 -0.382812 6.359375 -1.015625 6.359375 -1.671875 L 6.359375 -2.546875 L 3.28125 0.203125 C 3.09375 -0.179688 2.820312 -0.5 2.46875 -0.75 C 2.113281 -1.007812 1.757812 -1.140625 1.40625 -1.140625 C 1.332031 -1.140625 1.25 -1.128906 1.15625 -1.109375 C 1.0625 -1.085938 0.925781 -1.046875 0.75 -0.984375 C 0.832031 -1.222656 0.945312 -1.425781 1.09375 -1.59375 C 1.238281 -1.769531 1.429688 -1.9375 1.671875 -2.09375 L 1.671875 -6.796875 C 1.671875 -7.410156 1.546875 -7.84375 1.296875 -8.09375 C 1.054688 -8.351562 0.65625 -8.5 0.09375 -8.53125 L 0.171875 -8.59375 C 0.890625 -9.226562 1.445312 -9.867188 1.84375 -10.515625 C 2.46875 -10.347656 2.90625 -10.054688 3.15625 -9.640625 C 3.414062 -9.222656 3.546875 -8.539062 3.546875 -7.59375 L 3.546875 -2.421875 C 3.703125 -2.335938 3.863281 -2.21875 4.03125 -2.0625 C 4.195312 -1.90625 4.394531 -1.6875 4.625 -1.40625 L 6.359375 -2.84375 L 6.359375 -7.9375 C 6.046875 -8.039062 5.820312 -8.125 5.6875 -8.1875 C 5.5625 -8.257812 5.457031 -8.335938 5.375 -8.421875 L 4.96875 -8.109375 L 4.828125 -8.375 C 5.347656 -8.71875 5.785156 -9.054688 6.140625 -9.390625 C 6.492188 -9.734375 6.796875 -10.09375 7.046875 -10.46875 Z M 7.046875 -10.46875 "/></g></g></g><g fill="#000000" fill-opacity="1"><g transform="translate(37.875957, 25.500283)"><g><path d="M 5.5 -1.953125 L 5.5 -7.59375 C 5.3125 -7.675781 5.148438 -7.785156 5.015625 -7.921875 C 4.878906 -8.066406 4.75 -8.253906 4.625 -8.484375 C 4.289062 -8.316406 3.976562 -8.191406 3.6875 -8.109375 C 3.40625 -8.035156 3.148438 -8 2.921875 -8 C 2.710938 -8 2.503906 -8.03125 2.296875 -8.09375 C 2.085938 -8.164062 1.859375 -8.28125 1.609375 -8.4375 L 4.71875 -4.46875 L 4.4375 -4.265625 L 3.15625 -5.90625 C 2.925781 -5.570312 2.757812 -5.25 2.65625 -4.9375 C 2.550781 -4.632812 2.5 -4.3125 2.5 -3.96875 C 2.5 -3.300781 2.703125 -2.742188 3.109375 -2.296875 C 3.515625 -1.847656 4.09375 -1.550781 4.84375 -1.40625 Z M 5.59375 -1.609375 L 3.53125 0.296875 C 2.65625 0.00390625 1.960938 -0.421875 1.453125 -0.984375 C 0.953125 -1.546875 0.703125 -2.164062 0.703125 -2.84375 C 0.703125 -3.507812 0.898438 -4.132812 1.296875 -4.71875 C 1.691406 -5.300781 2.238281 -5.789062 2.9375 -6.1875 L 0.734375 -8.984375 L 0.765625 -8.984375 C 1.097656 -8.984375 1.453125 -9.101562 1.828125 -9.34375 C 2.203125 -9.582031 2.585938 -9.941406 2.984375 -10.421875 C 3.140625 -9.847656 3.328125 -9.414062 3.546875 -9.125 C 3.773438 -8.84375 4.035156 -8.703125 4.328125 -8.703125 C 4.640625 -8.703125 4.96875 -8.84375 5.3125 -9.125 C 5.664062 -9.40625 6.0625 -9.847656 6.5 -10.453125 C 6.519531 -10.046875 6.640625 -9.71875 6.859375 -9.46875 C 7.078125 -9.21875 7.351562 -9.09375 7.6875 -9.09375 C 7.75 -9.09375 7.832031 -9.101562 7.9375 -9.125 C 8.050781 -9.15625 8.164062 -9.195312 8.28125 -9.25 C 8.238281 -9.050781 8.144531 -8.863281 8 -8.6875 C 7.863281 -8.507812 7.65625 -8.316406 7.375 -8.109375 L 7.375 -3.28125 C 7.375 -2.695312 7.472656 -2.273438 7.671875 -2.015625 C 7.878906 -1.753906 8.203125 -1.625 8.640625 -1.625 L 8.859375 -1.625 L 7.28125 0.34375 C 6.820312 0.132812 6.457031 -0.113281 6.1875 -0.40625 C 5.914062 -0.707031 5.71875 -1.109375 5.59375 -1.609375 Z M 5.59375 -1.609375 "/></g></g></g><g fill="#000000" fill-opacity="1"><g transform="translate(46.905742, 25.500283)"><g><path d="M 0.484375 -0.53125 C 0.566406 -0.832031 0.707031 -1.09375 0.90625 -1.3125 C 1.101562 -1.53125 1.363281 -1.710938 1.6875 -1.859375 L 1.6875 -11.46875 C 1.6875 -12.019531 1.628906 -12.429688 1.515625 -12.703125 C 1.410156 -12.972656 1.222656 -13.226562 0.953125 -13.46875 C 1.535156 -13.53125 2.078125 -13.6875 2.578125 -13.9375 C 3.085938 -14.195312 3.617188 -14.585938 4.171875 -15.109375 L 4.328125 -14.96875 C 4.046875 -14.644531 3.847656 -14.28125 3.734375 -13.875 C 3.617188 -13.46875 3.5625 -12.734375 3.5625 -11.671875 L 3.5625 -2.296875 C 3.863281 -2.191406 4.117188 -2.054688 4.328125 -1.890625 C 4.546875 -1.722656 4.738281 -1.515625 4.90625 -1.265625 L 5.4375 -1.640625 L 5.609375 -1.359375 C 5.054688 -0.960938 4.585938 -0.59375 4.203125 -0.25 C 3.816406 0.09375 3.5625 0.367188 3.4375 0.578125 C 3.25 0.210938 2.96875 -0.0820312 2.59375 -0.3125 C 2.226562 -0.539062 1.847656 -0.65625 1.453125 -0.65625 C 1.316406 -0.65625 1.164062 -0.644531 1 -0.625 C 0.832031 -0.601562 0.660156 -0.570312 0.484375 -0.53125 Z M 0.484375 -0.53125 "/></g></g></g><g fill="#000000" fill-opacity="1"><g transform="translate(52.128037, 25.500283)"><g><path d="M 5.796875 -2.75 C 5.992188 -2.9375 6.132812 -3.15625 6.21875 -3.40625 C 6.300781 -3.65625 6.34375 -4.097656 6.34375 -4.734375 L 6.34375 -12 L 4.8125 -11.1875 L 4.71875 -11.453125 C 6.09375 -12.179688 7.21875 -12.828125 8.09375 -13.390625 C 8.976562 -13.960938 9.722656 -14.515625 10.328125 -15.046875 C 10.472656 -14.617188 10.660156 -14.296875 10.890625 -14.078125 C 11.117188 -13.867188 11.390625 -13.765625 11.703125 -13.765625 C 11.867188 -13.765625 12.03125 -13.796875 12.1875 -13.859375 C 12.34375 -13.929688 12.492188 -14.039062 12.640625 -14.1875 C 12.566406 -13.707031 12.375 -13.296875 12.0625 -12.953125 C 11.757812 -12.617188 11.367188 -12.390625 10.890625 -12.265625 L 10.890625 -1.828125 C 11.265625 -1.972656 11.65625 -2.203125 12.0625 -2.515625 C 12.46875 -2.835938 12.898438 -3.25 13.359375 -3.75 C 12.734375 -2.320312 11.894531 -1.242188 10.84375 -0.515625 C 9.800781 0.210938 8.566406 0.578125 7.140625 0.578125 C 5.335938 0.578125 3.863281 -0.078125 2.71875 -1.390625 C 1.570312 -2.710938 1 -4.410156 1 -6.484375 C 1 -8.210938 1.457031 -9.8125 2.375 -11.28125 C 3.289062 -12.757812 4.53125 -13.882812 6.09375 -14.65625 C 5.082031 -13.75 4.328125 -12.726562 3.828125 -11.59375 C 3.335938 -10.46875 3.09375 -9.207031 3.09375 -7.8125 C 3.09375 -5.6875 3.566406 -4.078125 4.515625 -2.984375 C 5.460938 -1.898438 6.867188 -1.359375 8.734375 -1.359375 C 9.066406 -1.359375 9.382812 -1.390625 9.6875 -1.453125 C 9.988281 -1.515625 10.296875 -1.609375 10.609375 -1.734375 L 10.609375 -12.203125 C 10.578125 -12.203125 10.539062 -12.195312 10.5 -12.1875 C 10.46875 -12.1875 10.421875 -12.1875 10.359375 -12.1875 C 9.984375 -12.1875 9.660156 -12.289062 9.390625 -12.5 C 9.117188 -12.71875 8.898438 -13.039062 8.734375 -13.46875 L 8.328125 -13.21875 L 8.328125 -6.203125 C 8.328125 -5.203125 8.128906 -4.4375 7.734375 -3.90625 C 7.347656 -3.382812 6.703125 -3 5.796875 -2.75 Z M 5.796875 -2.75 "/></g></g></g><g fill="#000000" fill-opacity="1"><g transform="translate(65.443849, 25.500283)"><g><path d="M 3.5625 -2.421875 C 3.914062 -2.296875 4.21875 -2.128906 4.46875 -1.921875 C 4.726562 -1.710938 4.945312 -1.457031 5.125 -1.15625 C 5.269531 -1.207031 5.441406 -1.253906 5.640625 -1.296875 C 5.835938 -1.347656 6.109375 -1.410156 6.453125 -1.484375 L 6.46875 -7.75 C 6.15625 -7.820312 5.875 -7.953125 5.625 -8.140625 C 5.375 -8.328125 5.117188 -8.601562 4.859375 -8.96875 C 4.773438 -8.945312 4.65625 -8.910156 4.5 -8.859375 C 4.082031 -8.742188 3.769531 -8.664062 3.5625 -8.625 Z M 0.515625 -0.6875 C 0.566406 -1.019531 0.679688 -1.3125 0.859375 -1.5625 C 1.046875 -1.820312 1.316406 -2.0625 1.671875 -2.28125 L 1.671875 -7.140625 C 1.671875 -7.492188 1.632812 -7.800781 1.5625 -8.0625 C 1.488281 -8.332031 1.367188 -8.609375 1.203125 -8.890625 C 1.304688 -8.878906 1.421875 -8.867188 1.546875 -8.859375 C 1.671875 -8.859375 1.847656 -8.859375 2.078125 -8.859375 C 3.003906 -8.859375 3.894531 -8.992188 4.75 -9.265625 C 5.601562 -9.546875 6.382812 -9.953125 7.09375 -10.484375 C 7.28125 -10.023438 7.507812 -9.671875 7.78125 -9.421875 C 8.050781 -9.171875 8.359375 -9.046875 8.703125 -9.046875 C 8.765625 -9.046875 8.878906 -9.066406 9.046875 -9.109375 C 9.097656 -9.128906 9.140625 -9.140625 9.171875 -9.140625 C 9.078125 -8.910156 8.960938 -8.710938 8.828125 -8.546875 C 8.703125 -8.378906 8.535156 -8.226562 8.328125 -8.09375 L 8.328125 -3.453125 C 8.328125 -2.984375 8.363281 -2.5625 8.4375 -2.1875 C 8.507812 -1.820312 8.625 -1.460938 8.78125 -1.109375 C 8.414062 -1.160156 8.140625 -1.191406 7.953125 -1.203125 C 7.773438 -1.222656 7.617188 -1.234375 7.484375 -1.234375 C 6.691406 -1.234375 5.953125 -1.101562 5.265625 -0.84375 C 4.585938 -0.582031 3.90625 -0.164062 3.21875 0.40625 C 2.914062 0.0390625 2.585938 -0.238281 2.234375 -0.4375 C 1.878906 -0.644531 1.519531 -0.75 1.15625 -0.75 C 1.0625 -0.75 0.960938 -0.742188 0.859375 -0.734375 C 0.753906 -0.722656 0.640625 -0.707031 0.515625 -0.6875 Z M 0.515625 -0.6875 "/></g></g></g><g fill="#000000" fill-opacity="1"><g transform="translate(75.160231, 25.500283)"><g><path d="M 3.09375 0.328125 C 2.8125 -0.117188 2.460938 -0.46875 2.046875 -0.71875 C 1.628906 -0.976562 1.195312 -1.109375 0.75 -1.109375 C 0.65625 -1.109375 0.582031 -1.109375 0.53125 -1.109375 C 0.488281 -1.109375 0.441406 -1.101562 0.390625 -1.09375 C 0.523438 -1.332031 0.695312 -1.539062 0.90625 -1.71875 C 1.113281 -1.894531 1.367188 -2.054688 1.671875 -2.203125 L 1.671875 -6.796875 C 1.671875 -7.410156 1.570312 -7.8125 1.375 -8 C 1.175781 -8.195312 0.785156 -8.328125 0.203125 -8.390625 C 0.710938 -8.710938 1.132812 -9.039062 1.46875 -9.375 C 1.800781 -9.707031 2.085938 -10.085938 2.328125 -10.515625 C 2.753906 -10.265625 3.0625 -9.90625 3.25 -9.4375 C 3.4375 -8.96875 3.53125 -8.300781 3.53125 -7.4375 L 3.53125 -7.25 L 7.359375 -10.421875 C 7.515625 -9.972656 7.707031 -9.644531 7.9375 -9.4375 C 8.175781 -9.226562 8.457031 -9.125 8.78125 -9.125 C 8.8125 -9.125 8.851562 -9.125 8.90625 -9.125 C 8.957031 -9.132812 9.023438 -9.148438 9.109375 -9.171875 C 9.035156 -8.941406 8.925781 -8.738281 8.78125 -8.5625 C 8.644531 -8.382812 8.460938 -8.222656 8.234375 -8.078125 L 8.234375 -3.234375 C 8.234375 -2.691406 8.351562 -2.296875 8.59375 -2.046875 C 8.832031 -1.796875 9.226562 -1.660156 9.78125 -1.640625 C 9.457031 -1.359375 9.148438 -1.050781 8.859375 -0.71875 C 8.566406 -0.394531 8.289062 -0.046875 8.03125 0.328125 C 7.40625 0.160156 6.96875 -0.113281 6.71875 -0.5 C 6.46875 -0.882812 6.34375 -1.554688 6.34375 -2.515625 L 6.34375 -7.734375 C 6.195312 -7.828125 6.050781 -7.929688 5.90625 -8.046875 C 5.769531 -8.171875 5.632812 -8.316406 5.5 -8.484375 L 3.53125 -6.796875 L 3.53125 -2.21875 C 3.914062 -2.09375 4.210938 -1.953125 4.421875 -1.796875 C 4.640625 -1.648438 4.828125 -1.460938 4.984375 -1.234375 C 4.585938 -1.054688 4.234375 -0.835938 3.921875 -0.578125 C 3.617188 -0.328125 3.34375 -0.0234375 3.09375 0.328125 Z M 3.09375 0.328125 "/></g></g></g><g fill="#000000" fill-opacity="1"><g transform="translate(85.022254, 25.500283)"><g><path d="M 1.015625 -0.53125 C 1.097656 -0.832031 1.234375 -1.085938 1.421875 -1.296875 C 1.609375 -1.503906 1.875 -1.691406 2.21875 -1.859375 L 2.21875 -8.609375 L 2.03125 -8.609375 C 1.6875 -8.609375 1.390625 -8.578125 1.140625 -8.515625 C 0.898438 -8.460938 0.695312 -8.378906 0.53125 -8.265625 C 0.539062 -8.359375 0.554688 -8.476562 0.578125 -8.625 C 0.597656 -8.84375 0.609375 -8.984375 0.609375 -9.046875 C 0.609375 -9.140625 0.601562 -9.242188 0.59375 -9.359375 C 0.582031 -9.484375 0.566406 -9.671875 0.546875 -9.921875 C 0.734375 -9.835938 0.9375 -9.773438 1.15625 -9.734375 C 1.382812 -9.691406 1.628906 -9.671875 1.890625 -9.671875 L 2.21875 -9.671875 L 2.21875 -10.0625 C 2.21875 -10.539062 2.160156 -10.921875 2.046875 -11.203125 C 1.941406 -11.484375 1.753906 -11.742188 1.484375 -11.984375 C 2.054688 -12.035156 2.59375 -12.191406 3.09375 -12.453125 C 3.601562 -12.710938 4.144531 -13.109375 4.71875 -13.640625 L 4.859375 -13.484375 C 4.578125 -13.171875 4.378906 -12.796875 4.265625 -12.359375 C 4.148438 -11.921875 4.09375 -11.242188 4.09375 -10.328125 L 4.09375 -9.671875 L 4.40625 -9.671875 C 4.675781 -9.671875 4.921875 -9.691406 5.140625 -9.734375 C 5.367188 -9.773438 5.570312 -9.835938 5.75 -9.921875 C 5.75 -9.898438 5.742188 -9.859375 5.734375 -9.796875 C 5.691406 -9.460938 5.671875 -9.226562 5.671875 -9.09375 C 5.671875 -8.96875 5.6875 -8.765625 5.71875 -8.484375 C 5.738281 -8.390625 5.75 -8.316406 5.75 -8.265625 C 5.582031 -8.378906 5.375 -8.460938 5.125 -8.515625 C 4.875 -8.578125 4.585938 -8.609375 4.265625 -8.609375 L 4.09375 -8.609375 L 4.09375 -2.296875 C 4.375 -2.210938 4.617188 -2.085938 4.828125 -1.921875 C 5.046875 -1.753906 5.25 -1.535156 5.4375 -1.265625 L 5.96875 -1.640625 L 6.140625 -1.359375 C 5.585938 -0.960938 5.117188 -0.59375 4.734375 -0.25 C 4.347656 0.09375 4.09375 0.367188 3.96875 0.578125 C 3.78125 0.210938 3.503906 -0.0820312 3.140625 -0.3125 C 2.773438 -0.539062 2.390625 -0.65625 1.984375 -0.65625 C 1.847656 -0.65625 1.695312 -0.644531 1.53125 -0.625 C 1.363281 -0.601562 1.191406 -0.570312 1.015625 -0.53125 Z M 1.015625 -0.53125 "/></g></g></g><g fill="#000000" fill-opacity="1"><g transform="translate(91.430489, 25.500283)"><g><path d="M 1.359375 -12.109375 L 0.9375 -11.828125 L 0.796875 -12.078125 C 1.429688 -12.535156 1.863281 -12.863281 2.09375 -13.0625 C 2.320312 -13.257812 2.492188 -13.4375 2.609375 -13.59375 C 2.742188 -13.25 2.90625 -13 3.09375 -12.84375 C 3.289062 -12.6875 3.539062 -12.609375 3.84375 -12.609375 C 3.863281 -12.609375 3.898438 -12.613281 3.953125 -12.625 C 4.015625 -12.632812 4.0625 -12.640625 4.09375 -12.640625 C 3.976562 -12.265625 3.773438 -11.960938 3.484375 -11.734375 C 3.203125 -11.515625 2.890625 -11.40625 2.546875 -11.40625 C 2.347656 -11.40625 2.144531 -11.460938 1.9375 -11.578125 C 1.738281 -11.703125 1.546875 -11.878906 1.359375 -12.109375 Z M 3.296875 0.203125 C 2.671875 0.0351562 2.234375 -0.296875 1.984375 -0.796875 C 1.734375 -1.304688 1.609375 -2.1875 1.609375 -3.4375 L 1.609375 -7.734375 C 1.429688 -7.828125 1.273438 -7.925781 1.140625 -8.03125 C 1.015625 -8.132812 0.890625 -8.265625 0.765625 -8.421875 L 0.234375 -8.09375 L 0.078125 -8.328125 C 0.535156 -8.617188 0.976562 -8.929688 1.40625 -9.265625 C 1.84375 -9.597656 2.25 -9.953125 2.625 -10.328125 C 2.769531 -9.992188 2.957031 -9.734375 3.1875 -9.546875 C 3.425781 -9.359375 3.6875 -9.265625 3.96875 -9.265625 C 4.007812 -9.265625 4.070312 -9.28125 4.15625 -9.3125 C 4.238281 -9.34375 4.375 -9.398438 4.5625 -9.484375 C 4.539062 -9.140625 4.441406 -8.835938 4.265625 -8.578125 C 4.085938 -8.328125 3.820312 -8.113281 3.46875 -7.9375 L 3.46875 -3.515625 C 3.46875 -2.804688 3.578125 -2.328125 3.796875 -2.078125 C 4.023438 -1.828125 4.425781 -1.691406 5 -1.671875 C 4.613281 -1.335938 4.273438 -1.015625 3.984375 -0.703125 C 3.703125 -0.390625 3.472656 -0.0859375 3.296875 0.203125 Z M 3.296875 0.203125 "/></g></g></g><g fill="#000000" fill-opacity="1"><g transform="translate(96.715202, 25.500283)"><g><path d="M 3.09375 0.328125 C 2.8125 -0.117188 2.460938 -0.46875 2.046875 -0.71875 C 1.628906 -0.976562 1.195312 -1.109375 0.75 -1.109375 C 0.65625 -1.109375 0.582031 -1.109375 0.53125 -1.109375 C 0.488281 -1.109375 0.441406 -1.101562 0.390625 -1.09375 C 0.523438 -1.332031 0.695312 -1.539062 0.90625 -1.71875 C 1.113281 -1.894531 1.367188 -2.054688 1.671875 -2.203125 L 1.671875 -6.796875 C 1.671875 -7.410156 1.570312 -7.8125 1.375 -8 C 1.175781 -8.195312 0.785156 -8.328125 0.203125 -8.390625 C 0.710938 -8.710938 1.132812 -9.039062 1.46875 -9.375 C 1.800781 -9.707031 2.085938 -10.085938 2.328125 -10.515625 C 2.753906 -10.265625 3.0625 -9.90625 3.25 -9.4375 C 3.4375 -8.96875 3.53125 -8.300781 3.53125 -7.4375 L 3.53125 -7.25 L 7.359375 -10.421875 C 7.515625 -9.972656 7.707031 -9.644531 7.9375 -9.4375 C 8.175781 -9.226562 8.457031 -9.125 8.78125 -9.125 C 8.8125 -9.125 8.851562 -9.125 8.90625 -9.125 C 8.957031 -9.132812 9.023438 -9.148438 9.109375 -9.171875 C 9.035156 -8.941406 8.925781 -8.738281 8.78125 -8.5625 C 8.644531 -8.382812 8.460938 -8.222656 8.234375 -8.078125 L 8.234375 -3.234375 C 8.234375 -2.691406 8.351562 -2.296875 8.59375 -2.046875 C 8.832031 -1.796875 9.226562 -1.660156 9.78125 -1.640625 C 9.457031 -1.359375 9.148438 -1.050781 8.859375 -0.71875 C 8.566406 -0.394531 8.289062 -0.046875 8.03125 0.328125 C 7.40625 0.160156 6.96875 -0.113281 6.71875 -0.5 C 6.46875 -0.882812 6.34375 -1.554688 6.34375 -2.515625 L 6.34375 -7.734375 C 6.195312 -7.828125 6.050781 -7.929688 5.90625 -8.046875 C 5.769531 -8.171875 5.632812 -8.316406 5.5 -8.484375 L 3.53125 -6.796875 L 3.53125 -2.21875 C 3.914062 -2.09375 4.210938 -1.953125 4.421875 -1.796875 C 4.640625 -1.648438 4.828125 -1.460938 4.984375 -1.234375 C 4.585938 -1.054688 4.234375 -0.835938 3.921875 -0.578125 C 3.617188 -0.328125 3.34375 -0.0234375 3.09375 0.328125 Z M 3.09375 0.328125 "/></g></g></g><g fill="#000000" fill-opacity="1"><g transform="translate(106.577225, 25.500283)"><g><path d="M 4.171875 -9.078125 L 3.53125 -8.90625 L 3.53125 -4.109375 L 6.078125 -5.8125 Z M 0.578125 -0.515625 C 0.578125 -0.890625 0.664062 -1.210938 0.84375 -1.484375 C 1.03125 -1.753906 1.304688 -1.960938 1.671875 -2.109375 L 1.671875 -7.1875 C 1.671875 -7.570312 1.617188 -7.90625 1.515625 -8.1875 C 1.421875 -8.46875 1.269531 -8.726562 1.0625 -8.96875 L 1.796875 -8.96875 C 2.566406 -8.96875 3.335938 -9.109375 4.109375 -9.390625 C 4.890625 -9.671875 5.5 -10.03125 5.9375 -10.46875 C 6.144531 -9.789062 6.429688 -9.132812 6.796875 -8.5 C 7.160156 -7.875 7.578125 -7.300781 8.046875 -6.78125 L 3.53125 -3.703125 L 3.53125 -2.3125 C 4.09375 -2.238281 4.601562 -2.125 5.0625 -1.96875 C 5.53125 -1.8125 5.929688 -1.609375 6.265625 -1.359375 L 6.859375 -1.828125 L 7.0625 -1.578125 L 4.734375 0.46875 C 4.296875 0.0820312 3.8125 -0.210938 3.28125 -0.421875 C 2.75 -0.628906 2.210938 -0.734375 1.671875 -0.734375 C 1.472656 -0.734375 1.285156 -0.710938 1.109375 -0.671875 C 0.929688 -0.640625 0.753906 -0.585938 0.578125 -0.515625 Z M 0.578125 -0.515625 "/></g></g></g><g fill="#000000" fill-opacity="1"><g transform="translate(114.753966, 25.500283)"><g><path d="M 3.09375 0.328125 C 2.8125 -0.117188 2.460938 -0.46875 2.046875 -0.71875 C 1.628906 -0.976562 1.195312 -1.109375 0.75 -1.109375 C 0.65625 -1.109375 0.582031 -1.109375 0.53125 -1.109375 C 0.488281 -1.109375 0.441406 -1.101562 0.390625 -1.09375 C 0.523438 -1.332031 0.695312 -1.539062 0.90625 -1.71875 C 1.113281 -1.894531 1.367188 -2.054688 1.671875 -2.203125 L 1.671875 -6.796875 C 1.671875 -7.410156 1.570312 -7.8125 1.375 -8 C 1.175781 -8.195312 0.785156 -8.328125 0.203125 -8.390625 C 0.710938 -8.710938 1.132812 -9.039062 1.46875 -9.375 C 1.800781 -9.707031 2.085938 -10.085938 2.328125 -10.515625 C 2.753906 -10.265625 3.0625 -9.90625 3.25 -9.4375 C 3.4375 -8.96875 3.53125 -8.300781 3.53125 -7.4375 L 3.53125 -7.25 L 7.359375 -10.421875 C 7.515625 -9.972656 7.707031 -9.644531 7.9375 -9.4375 C 8.175781 -9.226562 8.457031 -9.125 8.78125 -9.125 C 8.8125 -9.125 8.851562 -9.125 8.90625 -9.125 C 8.957031 -9.132812 9.023438 -9.148438 9.109375 -9.171875 C 9.035156 -8.941406 8.925781 -8.738281 8.78125 -8.5625 C 8.644531 -8.382812 8.460938 -8.222656 8.234375 -8.078125 L 8.234375 -3.234375 C 8.234375 -2.691406 8.351562 -2.296875 8.59375 -2.046875 C 8.832031 -1.796875 9.226562 -1.660156 9.78125 -1.640625 C 9.457031 -1.359375 9.148438 -1.050781 8.859375 -0.71875 C 8.566406 -0.394531 8.289062 -0.046875 8.03125 0.328125 C 7.40625 0.160156 6.96875 -0.113281 6.71875 -0.5 C 6.46875 -0.882812 6.34375 -1.554688 6.34375 -2.515625 L 6.34375 -7.734375 C 6.195312 -7.828125 6.050781 -7.929688 5.90625 -8.046875 C 5.769531 -8.171875 5.632812 -8.316406 5.5 -8.484375 L 3.53125 -6.796875 L 3.53125 -2.21875 C 3.914062 -2.09375 4.210938 -1.953125 4.421875 -1.796875 C 4.640625 -1.648438 4.828125 -1.460938 4.984375 -1.234375 C 4.585938 -1.054688 4.234375 -0.835938 3.921875 -0.578125 C 3.617188 -0.328125 3.34375 -0.0234375 3.09375 0.328125 Z M 3.09375 0.328125 "/></g></g></g><g fill="#000000" fill-opacity="1"><g transform="translate(124.615996, 25.500283)"><g><path d="M 1.015625 -0.53125 C 1.097656 -0.832031 1.234375 -1.085938 1.421875 -1.296875 C 1.609375 -1.503906 1.875 -1.691406 2.21875 -1.859375 L 2.21875 -8.609375 L 2.03125 -8.609375 C 1.6875 -8.609375 1.390625 -8.578125 1.140625 -8.515625 C 0.898438 -8.460938 0.695312 -8.378906 0.53125 -8.265625 C 0.539062 -8.359375 0.554688 -8.476562 0.578125 -8.625 C 0.597656 -8.84375 0.609375 -8.984375 0.609375 -9.046875 C 0.609375 -9.140625 0.601562 -9.242188 0.59375 -9.359375 C 0.582031 -9.484375 0.566406 -9.671875 0.546875 -9.921875 C 0.734375 -9.835938 0.9375 -9.773438 1.15625 -9.734375 C 1.382812 -9.691406 1.628906 -9.671875 1.890625 -9.671875 L 2.21875 -9.671875 L 2.21875 -10.0625 C 2.21875 -10.539062 2.160156 -10.921875 2.046875 -11.203125 C 1.941406 -11.484375 1.753906 -11.742188 1.484375 -11.984375 C 2.054688 -12.035156 2.59375 -12.191406 3.09375 -12.453125 C 3.601562 -12.710938 4.144531 -13.109375 4.71875 -13.640625 L 4.859375 -13.484375 C 4.578125 -13.171875 4.378906 -12.796875 4.265625 -12.359375 C 4.148438 -11.921875 4.09375 -11.242188 4.09375 -10.328125 L 4.09375 -9.671875 L 4.40625 -9.671875 C 4.675781 -9.671875 4.921875 -9.691406 5.140625 -9.734375 C 5.367188 -9.773438 5.570312 -9.835938 5.75 -9.921875 C 5.75 -9.898438 5.742188 -9.859375 5.734375 -9.796875 C 5.691406 -9.460938 5.671875 -9.226562 5.671875 -9.09375 C 5.671875 -8.96875 5.6875 -8.765625 5.71875 -8.484375 C 5.738281 -8.390625 5.75 -8.316406 5.75 -8.265625 C 5.582031 -8.378906 5.375 -8.460938 5.125 -8.515625 C 4.875 -8.578125 4.585938 -8.609375 4.265625 -8.609375 L 4.09375 -8.609375 L 4.09375 -2.296875 C 4.375 -2.210938 4.617188 -2.085938 4.828125 -1.921875 C 5.046875 -1.753906 5.25 -1.535156 5.4375 -1.265625 L 5.96875 -1.640625 L 6.140625 -1.359375 C 5.585938 -0.960938 5.117188 -0.59375 4.734375 -0.25 C 4.347656 0.09375 4.09375 0.367188 3.96875 0.578125 C 3.78125 0.210938 3.503906 -0.0820312 3.140625 -0.3125 C 2.773438 -0.539062 2.390625 -0.65625 1.984375 -0.65625 C 1.847656 -0.65625 1.695312 -0.644531 1.53125 -0.625 C 1.363281 -0.601562 1.191406 -0.570312 1.015625 -0.53125 Z M 1.015625 -0.53125 "/></g></g></g><g fill="#000000" fill-opacity="1"><g transform="translate(131.024231, 25.500283)"><g><path d="M 5.5 -1.953125 L 5.5 -7.59375 C 5.3125 -7.675781 5.148438 -7.785156 5.015625 -7.921875 C 4.878906 -8.066406 4.75 -8.253906 4.625 -8.484375 C 4.289062 -8.316406 3.976562 -8.191406 3.6875 -8.109375 C 3.40625 -8.035156 3.148438 -8 2.921875 -8 C 2.710938 -8 2.503906 -8.03125 2.296875 -8.09375 C 2.085938 -8.164062 1.859375 -8.28125 1.609375 -8.4375 L 4.71875 -4.46875 L 4.4375 -4.265625 L 3.15625 -5.90625 C 2.925781 -5.570312 2.757812 -5.25 2.65625 -4.9375 C 2.550781 -4.632812 2.5 -4.3125 2.5 -3.96875 C 2.5 -3.300781 2.703125 -2.742188 3.109375 -2.296875 C 3.515625 -1.847656 4.09375 -1.550781 4.84375 -1.40625 Z M 5.59375 -1.609375 L 3.53125 0.296875 C 2.65625 0.00390625 1.960938 -0.421875 1.453125 -0.984375 C 0.953125 -1.546875 0.703125 -2.164062 0.703125 -2.84375 C 0.703125 -3.507812 0.898438 -4.132812 1.296875 -4.71875 C 1.691406 -5.300781 2.238281 -5.789062 2.9375 -6.1875 L 0.734375 -8.984375 L 0.765625 -8.984375 C 1.097656 -8.984375 1.453125 -9.101562 1.828125 -9.34375 C 2.203125 -9.582031 2.585938 -9.941406 2.984375 -10.421875 C 3.140625 -9.847656 3.328125 -9.414062 3.546875 -9.125 C 3.773438 -8.84375 4.035156 -8.703125 4.328125 -8.703125 C 4.640625 -8.703125 4.96875 -8.84375 5.3125 -9.125 C 5.664062 -9.40625 6.0625 -9.847656 6.5 -10.453125 C 6.519531 -10.046875 6.640625 -9.71875 6.859375 -9.46875 C 7.078125 -9.21875 7.351562 -9.09375 7.6875 -9.09375 C 7.75 -9.09375 7.832031 -9.101562 7.9375 -9.125 C 8.050781 -9.15625 8.164062 -9.195312 8.28125 -9.25 C 8.238281 -9.050781 8.144531 -8.863281 8 -8.6875 C 7.863281 -8.507812 7.65625 -8.316406 7.375 -8.109375 L 7.375 -3.28125 C 7.375 -2.695312 7.472656 -2.273438 7.671875 -2.015625 C 7.878906 -1.753906 8.203125 -1.625 8.640625 -1.625 L 8.859375 -1.625 L 7.28125 0.34375 C 6.820312 0.132812 6.457031 -0.113281 6.1875 -0.40625 C 5.914062 -0.707031 5.71875 -1.109375 5.59375 -1.609375 Z M 5.59375 -1.609375 "/></g></g></g><g fill="#000000" fill-opacity="1"><g transform="translate(140.054016, 25.500283)"><g><path d="M 0.484375 -0.53125 C 0.566406 -0.832031 0.707031 -1.09375 0.90625 -1.3125 C 1.101562 -1.53125 1.363281 -1.710938 1.6875 -1.859375 L 1.6875 -11.46875 C 1.6875 -12.019531 1.628906 -12.429688 1.515625 -12.703125 C 1.410156 -12.972656 1.222656 -13.226562 0.953125 -13.46875 C 1.535156 -13.53125 2.078125 -13.6875 2.578125 -13.9375 C 3.085938 -14.195312 3.617188 -14.585938 4.171875 -15.109375 L 4.328125 -14.96875 C 4.046875 -14.644531 3.847656 -14.28125 3.734375 -13.875 C 3.617188 -13.46875 3.5625 -12.734375 3.5625 -11.671875 L 3.5625 -2.296875 C 3.863281 -2.191406 4.117188 -2.054688 4.328125 -1.890625 C 4.546875 -1.722656 4.738281 -1.515625 4.90625 -1.265625 L 5.4375 -1.640625 L 5.609375 -1.359375 C 5.054688 -0.960938 4.585938 -0.59375 4.203125 -0.25 C 3.816406 0.09375 3.5625 0.367188 3.4375 0.578125 C 3.25 0.210938 2.96875 -0.0820312 2.59375 -0.3125 C 2.226562 -0.539062 1.847656 -0.65625 1.453125 -0.65625 C 1.316406 -0.65625 1.164062 -0.644531 1 -0.625 C 0.832031 -0.601562 0.660156 -0.570312 0.484375 -0.53125 Z M 0.484375 -0.53125 "/></g></g></g></svg>